<svg width="209" height="47" viewBox="0 0 209 47" fill="none" xmlns="http://www.w3.org/2000/svg">
<path d="M1 20C1 9.50659 9.50659 1 20 1H34C44.4934 1 53 9.50659 53 20V27C53 37.4934 44.4934 46 34 46H20C9.50659 46 1 37.4934 1 27V20ZM73 20C73 9.50659 81.5066 1 92 1H106C116.493 1 125 9.50659 125 20V27C125 37.4934 116.493 46 106 46H92C81.5066 46 73 37.4934 73 27V20ZM156 20C156 9.50659 164.507 1 175 1H189C199.493 1 208 9.50659 208 20V27C208 37.4934 199.493 46 189 46H175C164.507 46 156 37.4934 156 27V20Z" fill="white" stroke="black" stroke-width="2"/>
</svg>
